<?xml version="1.0" standalone="no"?>
<!DOCTYPE svg PUBLIC "-//W3C//DTD SVG 20010904//EN"
 "http://www.w3.org/TR/2001/REC-SVG-20010904/DTD/svg10.dtd">
<svg version="1.0" xmlns="http://www.w3.org/2000/svg"
 width="1000.000000pt" height="1000.000000pt" viewBox="0 0 1000.000000 1000.000000"
 preserveAspectRatio="xMidYMid meet">
<metadata>
Created by potrace 1.14, written by Peter Selinger 2001-2017
</metadata>
<g transform="translate(0.000000,1000.000000) scale(0.100000,-0.100000)"
fill="#000000" stroke="none">
<path d="M3482 9940 c-415 -201 -627 -474 -637 -824 -3 -92 -11 -97 -125 -66
-25 6 -83 28 -130 47 -218 90 -300 91 -377 3 -13 -14 -23 -28 -23 -31 0 -3 20
-4 44 -3 56 3 123 -28 201 -93 68 -57 145 -130 145 -137 0 -2 -12 -1 -27 3
-43 12 -186 13 -216 2 l-28 -11 65 -50 c37 -27 78 -61 94 -75 15 -14 42 -35
59 -46 28 -17 31 -24 23 -40 -36 -66 -205 -98 -318 -60 -34 12 -63 21 -64 21
-2 0 -3 -15 -2 -32 2 -64 -35 -157 -124 -313 -122 -213 -178 -354 -198 -500
-14 -93 -6 -375 11 -445 2 -8 7 -35 10 -60 6 -46 15 -113 20 -140 1 -8 6 -35
10 -60 4 -25 9 -54 11 -65 2 -11 7 -33 10 -50 5 -29 92 -455 98 -485 2 -8 9
-35 16 -60 32 -117 31 -132 -4 -137 -42 -6 -100 -38 -136 -75 -45 -46 -77
-119 -100 -229 -35 -166 -16 -469 45 -704 28 -108 175 -381 252 -469 68 -78
155 -235 244 -441 82 -190 139 -246 254 -248 33 0 77 3 98 7 21 5 37 5 35 0
-1 -5 1 -18 4 -29 4 -11 18 -74 33 -140 71 -317 209 -575 479 -895 81 -96 121
-141 186 -209 19 -21 79 -84 133 -141 54 -57 105 -113 112 -124 14 -23 21 -74
31 -236 3 -58 8 -114 10 -125 2 -11 4 -81 5 -156 1 -156 -4 -172 -73 -235
-169 -152 -456 -385 -463 -375 -7 13 -110 -23 -281 -97 -289 -125 -393 -163
-480 -176 -21 -4 -77 -13 -124 -21 -47 -8 -102 -17 -122 -20 -21 -3 -55 -8
-75 -11 -39 -6 -44 -7 -123 -19 -124 -18 -396 -67 -447 -80 -32 -8 -71 -17
-88 -20 -16 -3 -64 -14 -105 -25 -41 -12 -82 -23 -90 -25 -162 -43 -371 -125
-492 -192 -78 -43 -197 -119 -208 -133 -3 -3 -15 -13 -28 -22 -60 -41 -282
-277 -282 -300 0 -5 -15 -30 -33 -56 -42 -60 -113 -199 -106 -206 3 -3 2203
-5 4888 -4 l4881 3 -33 65 c-71 137 -125 220 -209 322 -62 75 -182 192 -220
216 -16 9 -28 19 -28 23 0 20 -245 162 -390 227 -106 48 -399 134 -530 156
-19 3 -46 8 -60 11 -29 6 -193 34 -230 40 -51 7 -176 25 -220 30 -25 3 -56 8
-70 11 -14 2 -45 6 -70 9 -25 2 -58 6 -75 9 -16 2 -52 7 -80 11 -27 3 -63 9
-80 12 -16 3 -41 7 -53 9 -92 10 -203 54 -384 151 -105 56 -161 82 -249 118
-48 19 -59 21 -70 9 -12 -11 -32 1 -124 77 -212 172 -365 309 -381 340 -12 25
-15 60 -14 168 1 75 3 150 4 166 4 36 14 152 22 255 3 41 11 84 18 95 14 21
47 57 181 197 213 223 392 440 470 567 6 9 20 30 31 46 42 58 140 261 172 355
27 80 71 251 88 339 7 37 10 39 55 31 64 -12 127 -3 173 24 65 38 88 73 161
243 78 178 144 299 214 391 89 117 117 160 184 287 66 125 109 256 123 375 3
30 8 58 10 62 8 14 18 177 18 288 -2 265 -77 434 -216 481 -60 20 -59 15 -27
139 28 109 89 398 104 490 4 19 10 53 15 75 8 38 12 64 26 153 3 20 7 44 9 52
2 8 7 47 11 85 3 39 8 73 10 76 6 11 17 212 17 319 0 127 -13 375 -27 515 -3
28 -8 91 -12 140 -4 50 -8 97 -10 105 -1 8 -3 22 -3 30 -1 8 -21 -6 -51 -35
l-50 -49 -1 34 c-1 19 -2 55 -4 80 -2 25 -3 53 -4 63 -1 16 -7 14 -45 -13 -25
-16 -47 -27 -50 -22 -9 15 102 227 169 322 37 52 70 97 74 100 19 16 101 130
92 130 -21 0 -169 -40 -236 -63 -80 -28 -157 -66 -231 -113 l-51 -33 37 102
c70 189 116 290 152 335 31 37 -137 -59 -219 -126 -37 -29 -43 -32 -44 -16 -1
26 -4 40 -22 101 -46 154 -174 325 -332 443 -89 67 -110 87 -172 164 l-31 40
36 70 c20 39 38 74 40 79 2 4 -35 7 -83 7 -73 0 -92 -3 -118 -22 -18 -12 -34
-25 -37 -28 -3 -4 -24 -23 -47 -44 l-42 -37 19 65 19 66 -1637 0 -1637 0 -123
-60z"/>
</g>
</svg>
