<svg width="320" height="320" viewBox="0 0 320 320" xmlns="http://www.w3.org/2000/svg" shape-rendering="crispEdges"><rect width="100%" height="100%" fill="#5b5785" /><rect width="10" height="10" x="110" y="240" fill="#e12eca" /><rect width="10" height="10" x="210" y="240" fill="#e12eca" /><rect width="120" height="10" x="100" y="250" fill="#e12eca" /><rect width="120" height="10" x="100" y="260" fill="#e12eca" /><rect width="20" height="10" x="100" y="270" fill="#e12eca" /><rect width="10" height="10" x="120" y="270" fill="#bc00a7" /><rect width="90" height="10" x="130" y="270" fill="#e12eca" /><rect width="20" height="10" x="100" y="280" fill="#e12eca" /><rect width="10" height="10" x="120" y="280" fill="#bc00a7" /><rect width="90" height="10" x="130" y="280" fill="#e12eca" /><rect width="20" height="10" x="100" y="290" fill="#e12eca" /><rect width="10" height="10" x="120" y="290" fill="#bc00a7" /><rect width="90" height="10" x="130" y="290" fill="#e12eca" /><rect width="20" height="10" x="100" y="300" fill="#e12eca" /><rect width="10" height="10" x="120" y="300" fill="#bc00a7" /><rect width="90" height="10" x="130" y="300" fill="#e12eca" /><rect width="20" height="10" x="100" y="310" fill="#e12eca" /><rect width="10" height="10" x="120" y="310" fill="#bc00a7" /><rect width="90" height="10" x="130" y="310" fill="#e12eca" /><rect width="10" height="10" x="140" y="260" fill="#16ff31" /><rect width="10" height="10" x="140" y="270" fill="#16ff31" /><rect width="10" height="10" x="160" y="270" fill="#0090ff" /><rect width="10" height="10" x="200" y="270" fill="#ff0c0e" /><rect width="10" height="10" x="130" y="280" fill="#7eff00" /><rect width="10" height="10" x="140" y="280" fill="#16ff31" /><rect width="10" height="10" x="160" y="280" fill="#0090ff" /><rect width="10" height="10" x="180" y="280" fill="#9400ff" /><rect width="10" height="10" x="190" y="280" fill="#ff0053" /><rect width="10" height="10" x="200" y="280" fill="#ff0c0e" /><rect width="10" height="10" x="140" y="290" fill="#16ff31" /><rect width="20" height="10" x="160" y="290" fill="#0090ff" /><rect width="20" height="10" x="180" y="290" fill="#9400ff" /><rect width="10" height="10" x="200" y="290" fill="#ff0c0e" /><rect width="10" height="10" x="150" y="300" fill="#0090ff" /><rect width="20" height="10" x="170" y="300" fill="#9400ff" /><rect width="10" height="10" x="130" y="30" fill="#000000" /><rect width="10" height="10" x="150" y="30" fill="#000000" /><rect width="10" height="10" x="210" y="30" fill="#000000" /><rect width="10" height="10" x="70" y="40" fill="#6b7212" /><rect width="10" height="10" x="80" y="40" fill="#000000" /><rect width="10" height="10" x="130" y="40" fill="#000000" /><rect width="10" height="10" x="140" y="40" fill="#6b7212" /><rect width="10" height="10" x="150" y="40" fill="#000000" /><rect width="10" height="10" x="210" y="40" fill="#000000" /><rect width="10" height="10" x="50" y="50" fill="#000000" /><rect width="30" height="10" x="60" y="50" fill="#6b7212" /><rect width="10" height="10" x="90" y="50" fill="#000000" /><rect width="10" height="10" x="130" y="50" fill="#000000" /><rect width="10" height="10" x="140" y="50" fill="#6b7212" /><rect width="10" height="10" x="150" y="50" fill="#000000" /><rect width="10" height="10" x="200" y="50" fill="#000000" /><rect width="10" height="10" x="240" y="50" fill="#000000" /><rect width="10" height="10" x="60" y="60" fill="#000000" /><rect width="30" height="10" x="70" y="60" fill="#6b7212" /><rect width="10" height="10" x="100" y="60" fill="#000000" /><rect width="10" height="10" x="130" y="60" fill="#000000" /><rect width="20" height="10" x="140" y="60" fill="#6b7212" /><rect width="10" height="10" x="160" y="60" fill="#000000" /><rect width="10" height="10" x="200" y="60" fill="#000000" /><rect width="10" height="10" x="230" y="60" fill="#000000" /><rect width="20" height="10" x="240" y="60" fill="#6b7212" /><rect width="10" height="10" x="60" y="70" fill="#6b7212" /><rect width="10" height="10" x="70" y="70" fill="#000000" /><rect width="30" height="10" x="80" y="70" fill="#6b7212" /><rect width="10" height="10" x="110" y="70" fill="#000000" /><rect width="10" height="10" x="140" y="70" fill="#000000" /><rect width="20" height="10" x="150" y="70" fill="#6b7212" /><rect width="10" height="10" x="170" y="70" fill="#000000" /><rect width="10" height="10" x="190" y="70" fill="#000000" /><rect width="10" height="10" x="230" y="70" fill="#000000" /><rect width="20" height="10" x="240" y="70" fill="#6b7212" /><rect width="30" height="10" x="50" y="80" fill="#6b7212" /><rect width="20" height="10" x="80" y="80" fill="#000000" /><rect width="20" height="10" x="100" y="80" fill="#6b7212" /><rect width="10" height="10" x="120" y="80" fill="#000000" /><rect width="10" height="10" x="140" y="80" fill="#000000" /><rect width="20" height="10" x="150" y="80" fill="#6b7212" /><rect width="10" height="10" x="170" y="80" fill="#000000" /><rect width="10" height="10" x="190" y="80" fill="#000000" /><rect width="10" height="10" x="220" y="80" fill="#000000" /><rect width="20" height="10" x="230" y="80" fill="#6b7212" /><rect width="10" height="10" x="250" y="80" fill="#000000" /><rect width="50" height="10" x="50" y="90" fill="#6b7212" /><rect width="10" height="10" x="100" y="90" fill="#000000" /><rect width="10" height="10" x="110" y="90" fill="#6b7212" /><rect width="90" height="10" x="120" y="90" fill="#000000" /><rect width="10" height="10" x="220" y="90" fill="#000000" /><rect width="10" height="10" x="230" y="90" fill="#6b7212" /><rect width="10" height="10" x="240" y="90" fill="#000000" /><rect width="30" height="10" x="50" y="100" fill="#000000" /><rect width="30" height="10" x="80" y="100" fill="#6b7212" /><rect width="10" height="10" x="110" y="100" fill="#000000" /><rect width="90" height="10" x="120" y="100" fill="#f3d4b1" /><rect width="10" height="10" x="210" y="100" fill="#000000" /><rect width="30" height="10" x="220" y="100" fill="#6b7212" /><rect width="30" height="10" x="80" y="110" fill="#000000" /><rect width="110" height="10" x="110" y="110" fill="#f3d4b1" /><rect width="30" height="10" x="220" y="110" fill="#000000" /><rect width="10" height="10" x="100" y="120" fill="#000000" /><rect width="110" height="10" x="110" y="120" fill="#f3d4b1" /><rect width="10" height="10" x="220" y="120" fill="#000000" /><rect width="10" height="10" x="100" y="130" fill="#000000" /><rect width="110" height="10" x="110" y="130" fill="#f3d4b1" /><rect width="10" height="10" x="220" y="130" fill="#000000" /><rect width="10" height="10" x="100" y="140" fill="#000000" /><rect width="110" height="10" x="110" y="140" fill="#f3d4b1" /><rect width="10" height="10" x="220" y="140" fill="#000000" /><rect width="10" height="10" x="90" y="150" fill="#000000" /><rect width="120" height="10" x="100" y="150" fill="#f3d4b1" /><rect width="10" height="10" x="220" y="150" fill="#000000" /><rect width="10" height="10" x="90" y="160" fill="#000000" /><rect width="120" height="10" x="100" y="160" fill="#f3d4b1" /><rect width="10" height="10" x="220" y="160" fill="#000000" /><rect width="10" height="10" x="90" y="170" fill="#000000" /><rect width="120" height="10" x="100" y="170" fill="#f3d4b1" /><rect width="10" height="10" x="220" y="170" fill="#000000" /><rect width="10" height="10" x="90" y="180" fill="#000000" /><rect width="70" height="10" x="100" y="180" fill="#f3d4b1" /><rect width="10" height="10" x="170" y="180" fill="#000000" /><rect width="40" height="10" x="180" y="180" fill="#f3d4b1" /><rect width="10" height="10" x="220" y="180" fill="#000000" /><rect width="10" height="10" x="100" y="190" fill="#000000" /><rect width="110" height="10" x="110" y="190" fill="#f3d4b1" /><rect width="10" height="10" x="220" y="190" fill="#000000" /><rect width="10" height="10" x="100" y="200" fill="#000000" /><rect width="110" height="10" x="110" y="200" fill="#f3d4b1" /><rect width="10" height="10" x="220" y="200" fill="#000000" /><rect width="10" height="10" x="100" y="210" fill="#000000" /><rect width="50" height="10" x="110" y="210" fill="#f3d4b1" /><rect width="10" height="10" x="160" y="210" fill="#000000" /><rect width="50" height="10" x="170" y="210" fill="#f3d4b1" /><rect width="10" height="10" x="220" y="210" fill="#000000" /><rect width="10" height="10" x="100" y="220" fill="#000000" /><rect width="110" height="10" x="110" y="220" fill="#f3d4b1" /><rect width="10" height="10" x="220" y="220" fill="#000000" /><rect width="10" height="10" x="110" y="230" fill="#000000" /><rect width="90" height="10" x="120" y="230" fill="#f3d4b1" /><rect width="10" height="10" x="210" y="230" fill="#000000" /><rect width="90" height="10" x="120" y="240" fill="#000000" /><rect width="70" height="10" x="100" y="120" fill="#0000bd" /><rect width="70" height="10" x="180" y="120" fill="#0000bd" /><rect width="170" height="10" x="80" y="130" fill="#0000bd" /><rect width="170" height="10" x="80" y="140" fill="#0000bd" /><rect width="10" height="10" x="80" y="150" fill="#0000bd" /><rect width="20" height="10" x="100" y="150" fill="#0000bd" /><rect width="20" height="10" x="120" y="150" fill="#000000" /><rect width="10" height="10" x="140" y="150" fill="#ffffff" /><rect width="20" height="10" x="150" y="150" fill="#0000bd" /><rect width="20" height="10" x="180" y="150" fill="#0000bd" /><rect width="20" height="10" x="200" y="150" fill="#000000" /><rect width="10" height="10" x="220" y="150" fill="#ffffff" /><rect width="20" height="10" x="230" y="150" fill="#0000bd" /><rect width="20" height="10" x="100" y="160" fill="#0000bd" /><rect width="20" height="10" x="120" y="160" fill="#000000" /><rect width="10" height="10" x="140" y="160" fill="#ffffff" /><rect width="20" height="10" x="150" y="160" fill="#0000bd" /><rect width="20" height="10" x="180" y="160" fill="#0000bd" /><rect width="20" height="10" x="200" y="160" fill="#000000" /><rect width="10" height="10" x="220" y="160" fill="#ffffff" /><rect width="20" height="10" x="230" y="160" fill="#0000bd" /><rect width="70" height="10" x="100" y="170" fill="#0000bd" /><rect width="70" height="10" x="180" y="170" fill="#0000bd" /><rect width="70" height="10" x="100" y="180" fill="#0000bd" /><rect width="70" height="10" x="180" y="180" fill="#0000bd" /></svg>