<?xml version="1.0" standalone="no"?>
<!DOCTYPE svg PUBLIC "-//W3C//DTD SVG 20010904//EN"
 "http://www.w3.org/TR/2001/REC-SVG-20010904/DTD/svg10.dtd">
<svg version="1.0" xmlns="http://www.w3.org/2000/svg"
 width="960.000000pt" height="960.000000pt" viewBox="0 0 960.000000 960.000000"
 preserveAspectRatio="xMidYMid meet">
<metadata>
Created by potrace 1.14, written by Peter Selinger 2001-2017
</metadata>
<g transform="translate(0.000000,960.000000) scale(0.100000,-0.100000)"
fill="#000000" stroke="none">
<path d="M4538 9595 c-2 -2 -41 -6 -88 -9 -125 -9 -213 -17 -230 -21 -8 -2
-42 -7 -75 -10 -33 -4 -67 -8 -75 -10 -8 -3 -33 -7 -55 -11 -264 -39 -680
-151 -920 -247 -33 -13 -69 -28 -80 -32 -11 -4 -24 -9 -30 -10 -49 -12 -445
-206 -572 -281 -41 -24 -77 -44 -79 -44 -3 0 -17 -9 -32 -19 -15 -10 -61 -41
-102 -67 -236 -151 -494 -353 -704 -554 -155 -148 -271 -272 -418 -449 -72
-85 -244 -324 -315 -436 -106 -167 -333 -582 -333 -609 0 -3 -13 -33 -29 -68
-65 -139 -133 -328 -217 -598 -13 -43 -70 -274 -79 -322 -26 -131 -56 -310
-65 -383 -6 -49 -13 -106 -15 -125 -26 -210 -26 -752 1 -980 24 -207 36 -289
68 -450 66 -339 193 -738 326 -1025 60 -128 163 -329 207 -403 23 -41 43 -75
43 -77 0 -21 321 -489 360 -525 3 -3 30 -36 61 -75 31 -38 65 -79 75 -90 11
-11 37 -41 58 -65 93 -107 291 -302 426 -421 170 -149 449 -355 612 -454 428
-258 766 -406 1248 -549 79 -23 361 -88 440 -100 347 -57 512 -70 855 -70 228
0 402 7 477 19 13 2 50 6 83 10 86 9 267 35 284 41 8 2 30 7 50 10 259 40 755
193 1019 315 35 16 65 29 68 29 11 0 310 153 400 205 143 83 352 218 444 287
75 57 263 208 314 252 155 135 352 331 476 476 35 41 71 83 80 92 62 69 257
336 337 463 68 107 159 264 217 375 63 120 185 378 191 405 1 6 6 19 10 30 4
11 19 47 32 80 119 299 249 830 278 1135 3 36 8 72 10 80 26 104 25 750 -1
980 -46 406 -116 724 -237 1075 -104 304 -223 560 -415 895 -63 110 -319 481
-352 510 -3 3 -25 29 -48 59 -135 172 -382 428 -562 582 -47 40 -87 75 -90 79
-21 26 -329 253 -455 335 -83 55 -162 102 -255 153 -25 14 -49 28 -55 32 -24
19 -304 154 -431 208 -316 136 -677 243 -1029 307 -37 7 -205 32 -265 39 -25
4 -79 9 -120 12 -41 3 -86 8 -100 11 -26 5 -617 13 -622 8z"/>
</g>
</svg>
